<?xml version="1.0" standalone="no"?>
<!DOCTYPE svg PUBLIC "-//W3C//DTD SVG 20010904//EN"
 "http://www.w3.org/TR/2001/REC-SVG-20010904/DTD/svg10.dtd">
<svg version="1.0" xmlns="http://www.w3.org/2000/svg"
 width="260.000000pt" height="260.000000pt" viewBox="0 0 260.000000 260.000000"
 preserveAspectRatio="xMidYMid meet">
<metadata>
Created by potrace 1.14, written by Peter Selinger 2001-2017
</metadata>
<g transform="translate(0.000000,260.000000) scale(0.100000,-0.100000)"
fill="#000000" stroke="none">
<path d="M1266 2234 c-12 -11 -16 -35 -16 -88 0 -61 3 -76 20 -91 16 -15 26
-17 48 -9 26 9 27 12 30 94 2 71 0 87 -14 97 -24 17 -49 16 -68 -3z"/>
<path d="M764 2045 c-21 -32 -14 -49 49 -115 52 -54 74 -61 100 -32 27 30 20
54 -36 115 -59 64 -87 72 -113 32z"/>
<path d="M1730 2018 c-56 -58 -67 -85 -50 -117 21 -40 62 -27 119 35 54 59 63
90 33 117 -30 27 -48 20 -102 -35z"/>
<path d="M1166 1935 c-191 -49 -360 -217 -411 -411 -9 -32 -16 -99 -16 -149 0
-167 49 -284 171 -406 156 -157 367 -207 576 -136 l71 25 46 -48 c40 -42 44
-50 31 -61 -46 -38 -44 -42 118 -206 84 -85 166 -161 182 -170 58 -30 144 -3
180 59 16 26 20 99 8 129 -14 34 -306 329 -325 329 -10 0 -28 -11 -39 -25 -11
-14 -25 -25 -32 -25 -11 0 -76 60 -76 71 0 3 24 30 54 60 174 180 213 442 101
667 -64 127 -179 229 -320 281 -78 30 -234 37 -319 16z m234 -96 c252 -58 419
-327 355 -574 -63 -240 -290 -396 -521 -356 -180 32 -320 155 -374 329 -79
254 83 541 337 601 53 12 149 13 203 0z m594 -1158 c62 -62 87 -94 83 -105
-11 -29 -32 -17 -121 73 -62 62 -87 94 -83 105 11 29 32 17 121 -73z"/>
<path d="M1212 1627 c-49 -15 -127 -90 -147 -139 -22 -55 -22 -151 -1 -203 51
-121 212 -189 330 -140 50 21 113 80 139 129 29 57 29 165 0 221 -27 52 -88
110 -135 130 -42 17 -136 18 -186 2z m176 -104 c48 -36 72 -81 72 -138 0 -155
-197 -220 -289 -94 -28 38 -38 103 -22 151 31 94 162 138 239 81z"/>
<path d="M513 1560 c-16 -7 -23 -18 -23 -38 0 -44 16 -52 101 -52 68 0 80 3
93 21 16 23 12 47 -12 67 -18 14 -126 15 -159 2z"/>
<path d="M1932 1554 c-24 -17 -29 -53 -10 -72 19 -19 163 -16 182 4 21 21 20
40 -4 64 -26 26 -133 28 -168 4z"/>
</g>
</svg>
